<svg xmlns="http://www.w3.org/2000/svg" xmlns:xlink="http://www.w3.org/1999/xlink" width="231.033" height="60.24" viewBox="0 0 231.033 60.24"><defs><linearGradient id="a" x1="0.5" x2="0.5" y2="1" gradientUnits="objectBoundingBox"><stop offset="0" stop-color="#00e5bd"/><stop offset="0.173" stop-color="#00dac0"/><stop offset="0.479" stop-color="#00bdc9"/><stop offset="0.877" stop-color="#008dd8"/><stop offset="1" stop-color="#007ddd"/></linearGradient></defs><g transform="translate(6317 22279)"><g transform="translate(-6317 -22278.998)"><g transform="translate(126.299 -0.003)"><path d="M351.1,35.9a10.051,10.051,0,0,0,5.41-1.418v16.79c0,2.872,2.724,3.62,6.119,3.62h0V25.9c-7.276,7.872-16.045,7.5-23.433,0V51.31c0,2.65,2.836,3.62,6.38,3.62h0V34.482A9.841,9.841,0,0,0,351.1,35.9" transform="translate(-338.936 -16.232)" fill="url(#a)"/><path d="M338.5,0h4.4a2.062,2.062,0,0,1,2.124,1.566V5.483h-4.365c-1.269,0-2.164-.783-2.164-1.492Z" transform="translate(-338.498 0.003)" fill="url(#a)"/><path d="M391.026,3.956c0,.747-.9,1.492-2.164,1.492H384.5V1.567A2.1,2.1,0,0,1,386.626,0h4.4Z" transform="translate(-367.334 0.003)" fill="url(#a)"/><path d="M356.413,34.482A10.6,10.6,0,0,1,351,35.9a9.967,9.967,0,0,1-5.523-1.418c-1.492-.783-5.858-6.265-6.38-8.582a31.61,31.61,0,0,0,17.313,8.582" transform="translate(-338.873 -16.232)" opacity="0.65" fill="url(#a)"/><path d="M356.2,34.482a9.165,9.165,0,0,0,5.149,1.418,11.126,11.126,0,0,0,5.784-1.418c1.492-.783,5.6-6.265,6.119-8.582A29.1,29.1,0,0,1,356.2,34.482" transform="translate(-349.593 -16.232)" opacity="0.4" fill="url(#a)"/></g><path d="M0,27.3H8.582c6.567,0,12.387,1.642,12.387,9.4v.709c0,7.571-5.82,9.552-12.387,9.552h-1.9v8.954S0,55.919,0,52.933Zm6.679,4.738V42.22h1.9c3.359,0,5.709-.6,5.709-5.149,0-4.291-2.35-5.037-5.709-5.037Z" transform="translate(0 -17.113)" fill="#4e4e4e"/><path d="M65.5,34.488c.56,0,6.526.112,6.526,2.985V55.494s-6.526,0-6.526-2.985Zm0-7.687h4.4a2.062,2.062,0,0,1,2.124,1.566v3.916H67.664c-1.269,0-2.164-.783-2.164-1.492Z" transform="translate(-41.061 -16.8)" fill="#4e4e4e"/><path d="M107.162,54.071c0-1.827-.747-2.8-2.947-2.8a17.84,17.84,0,0,0-2.985.335v16.2s-6.526,0-6.526-2.985V46.5a9.659,9.659,0,0,0,4.254.933c1.9,0,3.732-.821,5.784-.821,4.365,0,8.918,1.492,8.918,6.866V67.805s-6.526-.074-6.526-2.985V54.071Z" transform="translate(-59.365 -29.149)" fill="#4e4e4e"/><path d="M156.283,57.919c0,3.507-1.978,6.567-5.336,6.567a7.653,7.653,0,0,1-5.447-2.312c3.172,0,4.254-3.545,4.254-5.482v-22.2s6.493,0,6.493,2.985V57.919ZM149.938,26.8h4.4a2.062,2.062,0,0,1,2.124,1.566v3.916H152.1c-1.269,0-2.164-.783-2.164-1.492Z" transform="translate(-91.21 -16.8)" fill="#4e4e4e"/><path d="M186.05,56.016a7.108,7.108,0,0,1-1.791-4.515c0-3.916,5.523-4.7,8.209-4.7,6.342,0,9.659,2.463,9.659,6.94V68.179a6.743,6.743,0,0,0-3.359-.709c-2.052,0-4.216.709-6.526.709-4.365,0-8.544-1.492-8.544-6.38,0-7.089,10.112-5.784,11.865-8.4,0-.933-.709-2.015-3.208-2.015C189.41,51.427,186.05,52.322,186.05,56.016Zm9.7,2.088c-1.044,1.642-5.482,1.008-5.482,3.507,0,1.827,1.305,2.2,2.65,2.2a12.115,12.115,0,0,0,2.835-.41V58.1Z" transform="translate(-115.158 -29.336)" fill="#4e4e4e"/><path d="M256.562,54.071c0-1.6-.747-2.8-2.947-2.8a19.972,19.972,0,0,0-2.985.3V67.805s-6.526,0-6.526-2.985V46.5a9.564,9.564,0,0,0,4.515.9c1.827,0,3.582-.783,5.559-.783a12.281,12.281,0,0,1,6.231,1.6,12.561,12.561,0,0,1,6.679-1.6c4.776,0,8.507,2.537,8.507,7.31V67.843s-6.526-.074-6.526-2.985V54.635c0-2.537-1.269-3.433-2.947-3.433a2.685,2.685,0,0,0-2.985,2.35V67.805s-6.526-.149-6.526-2.985V54.071Z" transform="translate(-153.02 -29.149)" fill="#4e4e4e"/><path d="M432.023,60.9c0,4.589-3.208,7.31-10.074,7.31-6.9,0-10.149-2.724-10.149-7.31V54.11c0-4.552,3.208-7.31,10.149-7.31,6.828,0,10.074,2.761,10.074,7.31ZM425.5,54.71c0-2.126-.634-3.284-3.545-3.284-2.985,0-3.62,1.156-3.62,3.284v5.6c0,2.126.634,3.359,3.62,3.359,2.911,0,3.545-1.194,3.545-3.359Z" transform="translate(-258.148 -29.337)" fill="#4e4e4e"/><path d="M494.391,25.759V52.884a6.382,6.382,0,0,0-3.469-.672c-2.425,0-4.627.672-6,.672-6,0-9.514-2.611-9.514-7.239V38.706c0-4.477,3.955-7.2,8.544-7.2a8.789,8.789,0,0,1,4.177,1.194,12.566,12.566,0,0,1-.261-2.015V22.4C488.533,22.4,494.391,22.438,494.391,25.759Zm-6.526,13.134a3.16,3.16,0,0,0-3.433-2.8c-1.492,0-2.537.97-2.537,3.172v5.82c0,2.164.821,3.394,3.469,3.394a19.523,19.523,0,0,0,2.5-.225Z" transform="translate(-298.017 -14.041)" fill="#4e4e4e"/><path d="M537.95,56.016a7.109,7.109,0,0,1-1.791-4.515c0-3.916,5.523-4.7,8.209-4.7,6.342,0,9.659,2.463,9.659,6.94V68.179a6.743,6.743,0,0,0-3.359-.709c-2.052,0-4.216.709-6.526.709-4.365,0-8.544-1.492-8.544-6.38,0-7.089,10.112-5.784,11.865-8.4,0-.933-.709-2.015-3.208-2.015C541.31,51.427,537.95,52.322,537.95,56.016Zm9.659,2.088c-1.044,1.642-5.482,1.008-5.482,3.507,0,1.827,1.305,2.2,2.65,2.2a12.113,12.113,0,0,0,2.835-.41V58.1Z" transform="translate(-335.756 -29.336)" fill="#4e4e4e"/><path d="M595.339,22.2c.411,0,6.526.038,6.526,2.985V44.812c0,2.126.038,5.784,2.349,5.97a3.749,3.749,0,0,1-3.545,1.827c-3.694,0-5.373-3.06-5.373-6.567V22.2Z" transform="translate(-373.182 -13.916)" fill="#4e4e4e"/></g></g></svg>